<?xml version="1.0" encoding="UTF-8"?>
<svg id="_レイヤー_2" data-name="レイヤー 2" xmlns="http://www.w3.org/2000/svg" viewBox="0 0 341.94 341.94">
  <defs>
    <style>
      .cls-1 {
        fill: #fbe47e;
        stroke: #685a21;
        stroke-miterlimit: 10;
        stroke-width: 10px;
      }

      .cls-2 {
        fill: #685a21;
      }
    </style>
  </defs>
  <g id="_2" data-name="2">
    <rect class="cls-1" x="5" y="5" width="331.94" height="331.94" rx="64.71" ry="64.71"/>
    <path class="cls-2" d="M247.73,199.18c-1.53-1.13-3.57-1.27-5.25-.34-1.66.93-2.62,2.75-2.45,4.64l1.41,25.13c-1.71-.33-11.5-5.74-11.5-5.74-10.47-4.35-19.35-10.49-27.57-18.13-5.47-5.09-10.6-10.86-15.53-17.11-4.15-5.27-8.14-10.91-12.09-16.72,6.3-9.23,12.73-17.94,19.67-25.57,5.25-5.8,10.78-10.99,16.74-15.43,6.81-5.07,14.19-9.18,22.62-12.22,5.19-1.86,6.22-3.29,12.41-4.24l-1.41,27.21c-.17,1.9.79,3.71,2.45,4.64,1.67.93,3.72.79,5.25-.34l64.57-46.75c1.22-.92,1.94-2.36,1.94-3.89s-.73-2.97-1.94-3.88l-64.57-46.47c-1.53-1.13-3.57-1.27-5.25-.34-1.66.93-2.62,2.75-2.45,4.64l1.59,29.04c-12.6,1.41-19.52,4.37-29.95,8.67-14.99,6.17-27.61,14.97-38.32,24.91-7.15,6.64-13.5,13.78-19.3,21.11-1.79,2.27-3.51,4.55-5.21,6.83-1.7-2.29-3.42-4.57-5.21-6.84-5.79-7.33-12.13-14.48-19.26-21.13-10.7-9.96-23.32-18.77-38.29-24.96-14.96-6.21-32.17-9.71-51.62-9.7h-7.62v35.83h7.62c13.49,0,24.59,2.08,34.23,5.54,8.43,3.04,15.79,7.16,22.61,12.25,5.95,4.44,11.46,9.64,16.72,15.45,6.92,7.64,13.33,16.36,19.63,25.6-3.95,5.81-7.95,11.45-12.11,16.7-4.94,6.26-10.08,12.02-15.55,17.1-8.23,7.63-17.11,13.75-27.59,18.1-10.49,4.32-22.68,6.96-37.93,6.97h-7.62v35.82h7.62c17.2.01,32.66-2.71,46.35-7.66,12-4.3,22.59-10.29,31.92-17.26,8.16-6.09,15.36-12.94,21.85-20.12,5.13-5.69,9.82-11.59,14.22-17.54,4.39,5.96,9.07,11.87,14.2,17.55,6.49,7.2,13.68,14.05,21.84,20.16,9.31,6.98,19.9,12.97,31.88,17.29l20.14,6.76-1.58,29.76c-.17,1.89.79,3.71,2.45,4.64,1.67.93,3.72.8,5.25-.34l64.57-47.31c1.22-.91,1.94-2.35,1.94-3.88s-.73-2.97-1.94-3.89l-64.57-44.56Z"/>
  </g>
</svg>